<svg id="visual" viewBox="0 0 900 600" width="900" height="600" xmlns="http://www.w3.org/2000/svg" xmlns:xlink="http://www.w3.org/1999/xlink" version="1.1"><path d="M0 542L30 537C60 532 120 522 180 511.7C240 501.3 300 490.7 360 497.2C420 503.7 480 527.3 540 536.8C600 546.3 660 541.7 720 531.7C780 521.7 840 506.3 870 498.7L900 491L900 601L870 601C840 601 780 601 720 601C660 601 600 601 540 601C480 601 420 601 360 601C300 601 240 601 180 601C120 601 60 601 30 601L0 601Z" fill="#fff" stroke-linecap="round" stroke-linejoin="miter"></path></svg>