<svg id="visual" viewBox="0 0 900 600" width="900" height="600" xmlns="http://www.w3.org/2000/svg" xmlns:xlink="http://www.w3.org/1999/xlink" version="1.1"><path d="M0 336L30 332.2C60 328.3 120 320.7 180 335.7C240 350.7 300 388.3 360 390.2C420 392 480 358 540 336C600 314 660 304 720 303.2C780 302.3 840 310.7 870 314.8L900 319L900 601L870 601C840 601 780 601 720 601C660 601 600 601 540 601C480 601 420 601 360 601C300 601 240 601 180 601C120 601 60 601 30 601L0 601Z" fill="#fff" stroke-linecap="round" stroke-linejoin="miter"></path></svg>